<svg width="900" height="600" viewBox="0 0 900 600" fill="none" xmlns="http://www.w3.org/2000/svg">
<path fill-rule="evenodd" clip-rule="evenodd" d="M0 0H900V600H0V0Z" fill="#418FDE"/>
<path d="M498.912 443.27C496.891 445.58 494.277 447.737 491.812 449.726C475.888 433.269 457.192 415.03 439.422 415.03C428.404 415.03 420.469 423.416 411.212 429.334C398.365 437.546 380.743 442.17 365.641 436.144C357.519 433.059 349.649 428.516 343.768 421.136C355.654 429.334 373.453 430.436 386.872 424.869C401.704 418.715 416.8 410.545 433.702 410.545C458.619 410.545 482.299 427.4 498.912 443.271V443.27ZM314.755 391.51C331.252 410.289 358.158 404.247 380.181 408.938C383.246 409.59 386.125 410.608 389.416 410.103C386.798 408.443 383.327 408.256 380.303 407.117C363.216 400.679 360.552 382.391 351.2 369.805C363.145 377.746 373.04 388.617 384.209 398.833C391.982 405.943 401.667 408.986 411.712 411.029C409.298 411.911 406.141 411.703 403.541 412.348C385.499 416.824 365.496 423.889 346.298 417.554C333.908 413.465 321.016 403.783 314.755 391.51ZM288.312 348.047C298.602 371.344 324.455 373.169 341.645 387.461C344.914 390.179 348.154 392.681 351.745 394.355L351.93 394.167C347.963 390.578 343.671 386.301 340.598 381.837C330.773 367.561 334.043 348.048 326.467 332.913C333.35 341.154 339.805 349.639 343.768 359.075C350.146 374.26 352.312 391.582 366.616 403.12C351.136 398.012 333.277 399.029 319.336 389.899C304.684 380.301 291.103 365.152 288.312 348.047ZM277.289 300.913C278.777 321.439 300.629 332.403 311.05 349.276C313.275 352.88 315.565 356.6 318.797 359.51C318.293 357.325 316.495 355.388 315.505 353.244C312.163 346.004 310.651 337.627 311.485 329.011C312.5 318.53 316.87 308.797 315.193 297.77C324.174 317.156 321.277 341.392 326.467 362.353C327.616 366.99 330.439 371.048 332.179 375.44C323.355 368.727 311.791 362.768 302.104 355.133C292.737 347.749 284.605 339.095 280.379 327.834C277.334 319.72 276.541 310.041 277.289 300.913ZM277.9 263.093C278.953 258.512 279.76 253.771 281.753 249.568C277.98 268.931 290.861 282.918 295.259 299.67C296.917 305.983 297.484 312.69 300.037 318.581C300.274 318.709 300.481 318.461 300.628 318.271C294.273 300.443 303.589 283.966 312.664 269.913C315.049 266.219 316.198 261.918 317.312 257.569C318.293 265.64 316.576 274.983 315.082 283.311C313.16 294.033 309.496 304.082 306.583 314.427C304.666 320.89 305.171 328.184 306.155 334.954L305.23 334.216C298.473 321.742 285.142 311.998 281.116 298.383C277.898 287.502 275.672 274.931 277.9 263.093ZM285.026 242.265C285.026 227.612 290.731 215.659 299.29 204.747C299.538 204.623 299.715 204.374 300.035 204.432C290.614 218.764 299.189 236.854 297.979 253.108L296.736 269.792C296.92 269.913 296.92 270.414 297.358 270.222C297.915 268.362 298.084 266.383 298.408 264.463C300.676 251.014 312.485 241.652 322.501 232.157C324.792 229.988 326.575 227.34 327.722 224.401C326.89 231.101 325.021 237.968 322.013 244.057C314.304 259.664 299.414 272.263 296.736 289.999C295.438 273.001 285.026 260.364 285.026 242.265ZM309.86 192.838C314.597 187.585 319.907 183.493 326.228 181.875C313.954 190.315 314.62 205.399 310.862 218.012C309.488 222.624 307.468 226.945 306.394 231.711L306.706 231.958C308.747 226.57 312.251 221.391 316.816 217.084C325.45 208.939 338.43 204.008 342.702 192.094C342.507 208.651 328.393 221.237 315.502 230.974C309.72 235.342 304.807 241.205 301.809 247.352C302.31 242.777 302.537 238.971 302.129 234.505C300.806 220.042 299.947 203.827 309.86 192.838ZM359.681 165C350.572 172.993 344.494 183.283 337.495 192.532C331.675 200.224 323.688 204.991 316.819 211.446C320.527 203.754 321.211 194.94 325.92 187.499C333.971 174.773 347.278 169.835 359.681 165Z" fill="white"/>
<path d="M403 443.274C405.021 445.583 407.635 447.741 410.099 449.73C426.024 433.273 444.719 415.033 462.49 415.033C473.507 415.033 481.442 423.42 490.699 429.337C503.546 437.549 521.168 442.174 536.269 436.147C544.392 433.063 552.262 428.52 558.143 421.14C546.257 429.337 528.458 430.44 515.039 424.872C500.207 418.719 485.112 410.548 468.21 410.548C443.293 410.548 419.612 427.403 403 443.275V443.274ZM587.155 391.513C570.658 410.292 543.753 404.25 521.73 408.941C518.665 409.593 515.786 410.611 512.495 410.106C515.113 408.446 518.584 408.259 521.608 407.12C538.695 400.682 541.359 382.394 550.711 369.808C538.766 377.749 528.871 388.62 517.702 398.836C509.929 405.946 500.244 408.989 490.2 411.033C492.613 411.915 495.77 411.707 498.37 412.351C516.412 416.827 536.415 423.892 555.612 417.557C568.002 413.469 580.895 403.786 587.155 391.513ZM613.598 348.05C603.308 371.347 577.455 373.172 560.265 387.464C556.997 390.182 553.756 392.684 550.166 394.358L549.981 394.17C553.948 390.581 558.24 386.304 561.312 381.84C571.137 367.563 567.867 348.05 575.443 332.915C568.56 341.156 562.105 349.642 558.142 359.078C551.765 374.262 549.598 391.585 535.295 403.123C550.775 398.015 568.634 399.032 582.574 389.902C597.227 380.304 610.807 365.154 613.598 348.05ZM624.621 300.915C623.133 321.441 601.281 332.405 590.861 349.278C588.635 352.882 586.346 356.602 583.113 359.512C583.617 357.327 585.416 355.391 586.406 353.246C589.747 346.007 591.26 337.629 590.426 329.014C589.41 318.532 585.041 308.799 586.718 297.772C577.737 317.158 580.634 341.394 575.443 362.355C574.295 366.993 571.471 371.051 569.731 375.443C578.556 368.73 590.12 362.771 599.806 355.136C609.173 347.752 617.305 339.098 621.531 327.836C624.576 319.722 625.369 310.043 624.621 300.915ZM624.01 263.095C622.957 258.513 622.15 253.772 620.157 249.57C623.93 268.933 611.049 282.92 606.651 299.672C604.994 305.985 604.427 312.692 601.874 318.583C601.636 318.711 601.43 318.463 601.283 318.273C607.637 300.444 598.322 283.967 589.246 269.914C586.861 266.221 585.712 261.919 584.598 257.571C583.617 265.642 585.335 274.984 586.828 283.313C588.75 294.035 592.415 304.084 595.327 314.429C597.245 320.892 596.739 328.186 595.755 334.957L596.681 334.219C603.437 321.745 616.768 312 620.794 298.385C624.012 287.504 626.238 274.933 624.01 263.095ZM616.884 242.266C616.884 227.613 611.179 215.66 602.621 204.748C602.372 204.624 602.195 204.375 601.875 204.433C611.296 218.764 602.721 236.855 603.932 253.11L605.174 269.793C604.99 269.914 604.99 270.415 604.552 270.223C603.995 268.363 603.827 266.385 603.503 264.464C601.235 251.015 589.425 241.653 579.409 232.158C577.118 229.989 575.335 227.34 574.188 224.402C575.021 231.101 576.89 237.969 579.897 244.058C587.606 259.665 602.496 272.264 605.174 290.001C606.473 273.002 616.884 260.365 616.884 242.266ZM592.05 192.838C587.313 187.585 582.003 183.493 575.682 181.875C587.957 190.315 587.29 205.4 591.048 218.013C592.422 222.625 594.442 226.946 595.516 231.712L595.205 231.959C593.163 226.571 589.659 221.392 585.094 217.084C576.461 208.939 563.481 204.009 559.209 192.094C559.404 208.651 573.518 221.238 586.408 230.975C592.19 235.343 597.103 241.206 600.101 247.353C599.6 242.778 599.373 238.972 599.781 234.506C601.104 220.042 601.963 203.828 592.05 192.838ZM542.23 165C551.339 172.994 557.417 183.283 564.416 192.532C570.236 200.225 578.223 204.991 585.091 211.447C581.384 203.755 580.699 194.94 575.991 187.499C567.939 174.773 554.632 169.835 542.23 165Z" fill="white"/>
<path d="M561.25 329.14L558.559 327.671C552.88 339.377 545.352 350.092 536.265 359.403L520.546 343.683C528.247 335.748 534.456 326.741 539.03 317.006L536.353 315.541C531.854 325.143 525.79 333.931 518.409 341.545L504.169 327.305C510.195 321.049 515.09 313.794 518.634 305.864L515.977 304.414C512.57 312.092 507.854 319.118 502.039 325.179L486.302 309.443C490.619 304.876 494.031 299.532 496.357 293.695L493.699 292.245C491.518 297.831 488.289 302.949 484.185 307.322L469.902 293.042C473.957 288.534 476.343 282.772 476.664 276.718H496.881C496.715 282.037 495.638 287.289 493.699 292.245L496.357 293.695C498.508 288.284 499.693 282.537 499.858 276.717H522.144C521.953 286.268 519.856 295.684 515.976 304.414L518.633 305.864C522.685 296.789 524.926 286.926 525.123 276.716H545.302C545.105 290.145 542.054 303.38 536.35 315.54L539.029 317.005C544.888 304.537 548.073 290.871 548.283 276.716H570.568C570.345 294.955 566.048 312.224 558.559 327.671L561.25 329.138C569.308 312.543 573.585 294.217 573.585 275.226C573.585 259.076 570.49 243.409 564.612 228.874L561.85 230.061C567.387 243.777 570.388 258.527 570.573 273.737H548.285C548.104 261.603 545.72 249.837 541.358 238.869L538.618 240.044C542.825 250.647 545.128 262.014 545.305 273.737H525.124C524.96 264.934 523.248 256.228 520.065 248.019L517.324 249.197C520.35 257.033 521.983 265.338 522.148 273.737H499.86C499.709 268.362 498.689 263.048 496.84 258L494.099 259.176C495.794 263.851 496.734 268.766 496.883 273.737H476.666C476.346 267.682 473.959 261.92 469.903 257.413L484.201 243.118C488.616 247.813 491.956 253.265 494.101 259.177L496.84 258.001C494.545 251.749 490.993 245.981 486.304 241.012L502.064 225.254C508.789 232.253 513.922 240.38 517.324 249.197L520.066 248.019C516.514 238.862 511.167 230.418 504.171 223.148L518.44 208.875C527.278 217.99 534.067 228.565 538.618 240.044L541.358 238.87C536.657 227.048 529.654 216.156 520.546 206.773L536.304 191.012C547.449 202.429 556.045 215.676 561.85 230.062L564.611 228.875C558.478 213.695 549.307 199.754 537.382 187.829C525.412 175.859 511.409 166.667 496.164 160.532L495.066 163.328C509.483 169.135 522.76 177.741 534.197 188.906L518.44 204.666C509.215 195.726 498.527 188.796 486.925 184.101L485.837 186.873C497.057 191.425 507.398 198.128 516.334 206.796L502.066 221.066C495.129 214.392 487.13 209.21 478.459 205.663L477.37 208.434C485.667 211.834 493.318 216.793 499.96 223.172L484.203 238.929C479.77 234.752 474.702 231.473 469.225 229.186L468.136 231.959C473.295 234.125 478.024 237.2 482.097 241.037L467.802 255.332C463.258 251.262 457.564 248.903 451.474 248.571V228.355C457.202 228.524 462.85 229.746 468.136 231.96L469.225 229.186C463.657 226.86 457.662 225.557 451.475 225.376V203.088C460.499 203.27 469.243 205.103 477.371 208.435L478.46 205.663C469.99 202.198 460.876 200.293 451.475 200.111V179.921C463.441 180.104 475.045 182.491 485.836 186.866L486.924 184.094C475.789 179.584 463.822 177.127 451.474 176.944V154.654C466.654 154.838 481.377 157.83 495.067 163.343L496.165 160.547C481.68 154.715 466.071 151.642 449.986 151.642C430.783 151.627 411.844 156.117 394.69 164.75L396.048 167.349C412.159 159.276 429.985 154.878 448.498 154.655V176.945C433.881 177.153 419.499 180.641 406.41 187.151L407.764 189.743C420.298 183.538 434.135 180.138 448.498 179.919V200.102C437.619 200.307 426.917 202.887 417.14 207.662L418.501 210.266C427.757 205.774 437.935 203.291 448.498 203.078V225.368C441.697 225.564 435.01 227.157 428.851 230.048L430.22 232.662C435.895 230.025 442.085 228.542 448.498 228.344V248.564C445.44 248.732 442.435 249.426 439.613 250.616L440.98 253.229C443.839 252.06 446.899 251.462 449.987 251.466C456.337 251.466 462.306 253.939 466.797 258.428C471.288 262.919 473.76 268.891 473.76 275.241C473.76 288.35 463.097 299.018 449.986 299.018C443.635 299.018 437.664 296.544 433.174 292.054C428.683 287.561 426.211 281.591 426.211 275.241C426.211 268.89 428.683 262.919 433.174 258.428C435.404 256.194 438.058 254.426 440.979 253.229L439.612 250.616C436.891 251.765 434.38 253.358 432.18 255.329L417.877 241.026C421.518 237.597 425.685 234.773 430.219 232.661L428.85 230.047C424.052 232.299 419.642 235.3 415.785 238.936L400.011 223.161C405.461 217.921 411.7 213.569 418.501 210.266L417.139 207.662C410.077 211.107 403.597 215.634 397.931 221.079L383.636 206.785C390.744 199.885 398.883 194.135 407.762 189.742L406.408 187.15C397.269 191.685 388.887 197.61 381.561 204.713L365.77 188.921C374.688 180.21 384.901 172.933 396.046 167.349L394.689 164.75C370.623 176.843 351.031 196.552 339.1 220.712L341.69 222.11C347.325 210.651 354.742 200.16 363.665 191.026L379.457 206.818C372.068 214.427 365.954 223.179 361.351 232.735L363.931 234.128C368.334 224.93 374.236 216.412 381.529 208.892L395.824 223.186C390.028 229.217 385.276 236.171 381.762 243.763L384.347 245.158C387.719 237.814 392.303 231.09 397.906 225.267L413.68 241.042C409.617 245.35 406.351 250.346 404.033 255.797L406.639 257.207C408.809 252.002 411.902 247.234 415.769 243.131L430.072 257.433C426.145 261.822 423.652 267.496 423.307 273.749H403.085C403.255 268.064 404.459 262.458 406.639 257.205L404.032 255.795C401.617 261.483 400.286 267.572 400.108 273.749H377.821C378.022 263.72 380.272 254.035 384.346 245.156L381.76 243.761C377.398 253.169 375.044 263.382 374.847 273.75H354.662C354.874 259.812 358.072 246.366 363.931 234.126L361.351 232.733C355.356 245.183 351.908 259.08 351.689 273.75H329.398C329.617 255.547 333.871 238.007 341.689 222.109L339.099 220.712C330.973 237.171 326.385 255.676 326.385 275.24C326.379 287.029 328.054 298.759 331.359 310.076L334.278 309.341C331.171 298.744 329.529 287.771 329.398 276.729H351.685C351.814 285.937 353.234 295.082 355.902 303.896L358.792 303.169C356.207 294.695 354.802 285.816 354.662 276.729H374.843C374.984 284.029 376.184 291.27 378.407 298.226L381.302 297.495C379.135 290.78 377.962 283.784 377.822 276.729H400.108C400.258 281.951 401.225 287.117 402.976 292.038L405.873 291.307C404.177 286.626 403.236 281.706 403.085 276.73H423.304C423.624 282.784 426.011 288.546 430.065 293.054L415.769 307.35C411.359 302.657 408.02 297.211 405.872 291.308L402.976 292.038C405.263 298.454 408.869 304.373 413.663 309.455L397.906 325.214C390.241 317.234 384.631 307.776 381.308 297.501L378.413 298.232C381.863 309.021 387.746 318.947 395.807 327.324L381.535 341.597C370.862 330.591 363.154 317.462 358.798 303.173L355.909 303.901C360.397 318.704 368.371 332.309 379.429 343.701L363.67 359.46C349.723 345.17 339.762 328.018 334.285 309.346L331.366 310.081C337.111 329.738 347.708 347.759 362.594 362.641C372.675 372.725 384.197 380.84 396.689 386.821L398.168 384.197C386.346 378.563 375.41 370.971 365.776 361.565L381.533 345.807C389.594 353.642 398.939 360.037 409.161 364.714L410.631 362.105C400.763 357.628 391.637 351.454 383.641 343.703L397.912 329.432C404.6 335.867 412.28 340.91 420.595 344.444L422.065 341.84C413.988 338.45 406.518 333.575 400.023 327.335L415.782 311.576C420.846 316.353 426.741 319.951 433.132 322.241L434.621 319.603C428.391 317.444 422.689 313.991 417.889 309.47L432.184 295.174C436.725 299.246 442.419 301.604 448.508 301.937V322.157C443.777 322.011 439.095 321.15 434.621 319.604L433.132 322.241C438.073 324.009 443.262 324.985 448.508 325.133V347.418C439.286 347.234 430.351 345.324 422.071 341.851L420.602 344.455C429.333 348.166 438.763 350.209 448.508 350.397V370.579C435.229 370.374 422.404 367.455 410.638 362.117L409.168 364.724C421.382 370.306 434.71 373.35 448.509 373.556V395.84C430.807 395.628 413.724 391.615 398.176 384.208L396.696 386.831C413.128 394.697 431.241 398.855 449.998 398.855C469.673 398.855 488.631 394.257 505.692 385.625L504.283 382.892C487.909 391.198 469.844 395.628 451.485 395.842V373.557C466.529 373.334 481.011 369.728 494.095 363.147L492.704 360.45C479.908 366.902 465.814 370.365 451.485 370.577V350.396C462.772 350.178 473.636 347.471 483.478 342.561L482.095 339.878C472.577 344.631 462.121 347.206 451.485 347.417V325.133C458.674 324.923 465.594 323.192 471.892 320.109L470.52 317.441C464.581 320.343 458.092 321.95 451.485 322.154V301.937C457.541 301.618 463.303 299.23 467.811 295.174L482.092 309.456C478.655 312.681 474.754 315.373 470.519 317.441L471.892 320.109C476.405 317.901 480.558 315.024 484.212 311.576L499.945 327.311C494.665 332.378 488.646 336.616 482.094 339.878L483.477 342.561C490.307 339.157 496.579 334.733 502.077 329.442L516.316 343.68C509.342 350.436 501.38 356.092 492.704 360.451L494.095 363.148C503.05 358.646 511.264 352.802 518.452 345.818L534.172 361.538C525.402 370.097 515.319 377.306 504.283 382.892L505.692 385.625C517.411 379.696 528.112 371.942 537.394 362.652C547.311 352.738 555.313 341.423 561.263 329.168L561.25 329.14Z" fill="white"/>
<path d="M456.314 246.652L456.35 247.547L457.102 247.511L457.061 246.622L456.314 246.652ZM455.22 245.432H456.216V246.191H455.22V245.432ZM454.299 245.298L454.404 244.547L453.529 244.422L453.424 245.167L454.299 245.298ZM452.685 244.913L451.815 244.787L451.921 244.033L452.791 244.159L452.685 244.913ZM445.5 243.91H446.496V244.67H445.5V243.91ZM444.198 245.549L444.304 244.797L443.434 244.672L443.329 245.423L444.198 245.549ZM443.418 246.569L442.419 246.316L442.601 245.579L443.6 245.834L443.418 246.569ZM441.633 247.505L441.509 246.745L442.248 246.621L442.372 247.38L441.633 247.505ZM343.763 326.787H344.515L344.386 324.891L343.388 324.509V323.877H342.765V325.142H343.763V326.787ZM351.496 332.351L352.366 332.989L353.241 334.886L352.742 335.768L351.373 334.504L350.374 333.114L349.874 331.976L348.998 329.697L350.867 330.58L351.496 332.351ZM381.169 370.313L380.293 370.82L379.794 370.063L378.548 369.681L378.425 368.543L377.426 367.021L378.924 367.278L380.54 368.668L381.169 370.313ZM446.123 254.792H444.752L444.502 252.01L445.25 251.501V250.11H440.885L440.762 248.72L441.386 248.339L440.388 247.96L439.64 248.971L439.392 250.11L438.145 250.364V250.996H437.273V252.64L433.781 255.55L426.8 255.299C426.299 256.436 425.052 255.171 425.052 255.171C424.805 254.412 423.059 255.171 423.059 255.171C423.059 256.564 420.691 254.539 420.691 254.539L416.326 251.375C413.833 249.098 410.093 252.008 409.969 252.64C410.093 254.412 407.102 253.02 407.102 253.02C407.102 253.02 404.609 252.262 404.234 253.274C403.861 254.285 402.237 254.034 402.237 254.034L401.987 254.54L400.74 254.792L400.493 255.551L398.996 255.806L402.735 255.678C403.733 255.551 402.36 257.83 401.738 257.703L399.995 257.83L399.369 258.461H397.749L397.001 259.475L394.634 259.348C394.634 259.348 393.261 260.487 393.387 260.866C393.512 261.246 393.137 262.385 392.762 262.385C392.388 262.385 391.64 263.523 391.89 263.902C392.141 264.283 391.142 265.548 391.142 265.548L390.894 266.815L390.146 267.066V270.483L388.649 271.496V273.014L386.404 275.418L386.654 277.441L384.785 279.467L385.033 281.491L383.911 281.871L383.663 282.756L383.165 285.413L384.411 285.54C385.033 285.286 384.909 287.186 384.411 287.438C383.911 287.691 382.539 288.196 383.289 288.701C384.038 289.21 381.294 289.082 381.294 288.322C381.294 287.565 379.797 286.931 379.424 287.185C379.049 287.437 378.425 286.046 378.425 286.046C377.054 284.655 372.815 286.172 372.815 286.172L372.19 288.196C370.82 288.451 369.947 290.728 369.947 290.728C368.825 291.108 367.953 292.498 368.327 292.878C368.701 293.258 367.703 293.384 367.703 293.384V296.169L367.08 297.054L367.203 300.09C367.953 300.09 367.829 301.483 367.829 301.483C366.581 301.609 366.829 303.255 366.829 303.255L364.212 304.14L363.714 304.899L360.473 304.771L359.6 305.658L358.725 304.771H352.492L352.244 304.139L350.997 303.884L350.871 302.495L349.002 302.62L348.629 303.38L346.633 303.505C346.757 304.771 344.638 306.67 344.39 306.165C344.138 305.658 342.767 304.264 343.392 304.014C344.016 303.759 345.638 303.505 345.638 303.505V302.62L341.023 302.495L340.525 303.254L338.654 303.38V305.404L337.782 305.658C337.157 306.036 337.905 307.43 337.905 307.43C338.778 308.315 337.782 309.705 337.782 309.705C337.032 310.465 338.404 311.858 338.404 311.858C339.402 312.11 337.781 312.869 337.781 312.869C338.029 314.134 338.779 314.514 338.779 314.514C338.029 315.778 339.279 316.41 339.279 316.41L339.402 318.564L340.275 319.07V320.459L340.773 321.346H342.768L342.643 318.183C340.897 316.158 344.138 315.652 344.265 316.409C344.391 317.169 345.762 317.549 345.762 317.549C346.012 319.448 348.132 320.585 348.753 318.689C349.377 316.789 349.876 317.929 350.25 318.814C350.624 319.701 352.99 321.852 352.99 321.852H354.862L355.112 323.624C357.231 323.497 357.853 323.753 358.726 326.66C359.6 329.569 361.968 330.329 361.968 330.329L363.714 330.202C363.714 328.686 365.46 330.457 365.46 331.218C365.46 331.974 368.825 334.885 368.825 334.885L372.191 335.642L375.311 338.177L377.678 337.923H378.677C379.298 335.77 382.292 338.048 382.539 338.808C382.791 339.567 384.785 340.833 385.032 340.198C385.283 339.567 386.654 339.947 386.904 341.843C387.153 343.744 388.025 343.363 388.025 343.363L395.132 343.237L397.625 341.084L403.985 340.959C407.225 340.832 405.23 336.403 404.609 336.403C403.487 335.518 404.982 331.849 404.982 331.849L395.881 323.372C393.761 323.372 395.631 320.333 395.631 320.333C397.251 319.32 395.256 317.678 395.256 317.678C395.507 316.157 394.383 314.386 394.383 314.386C392.141 312.868 392.763 309.956 392.763 309.956V307.931C390.894 306.161 393.512 305.906 393.512 305.906C394.383 304.391 392.887 303.251 392.887 303.251L392.763 301.606L390.768 301.352L390.521 295.404L386.032 288.953C385.157 288.698 385.781 287.181 385.781 287.181C386.903 286.548 385.53 285.031 385.53 285.031L385.406 282.247L388.024 281.992L388.648 280.981H389.894L389.771 277.691C390.393 276.047 391.889 276.932 391.889 276.932L393.634 277.059L394.633 275.16L394.88 273.641L393.51 273.516C392.014 272.63 392.762 269.341 392.762 269.341C395.131 265.796 397.872 267.821 397.872 267.821L399.62 267.696C402.236 269.466 399.867 272.756 399.867 272.756C399.368 273.516 399.62 275.92 399.62 275.92L400.242 279.968L398.621 281.361C397.25 282.121 397.25 283.892 398.747 284.271C399.743 284.396 399.369 286.802 397.872 285.156C395.63 285.156 399.122 287.181 398.123 286.673C400.368 287.813 399.867 285.662 399.867 285.662L402.862 283.257C403.985 282.372 405.98 285.156 405.98 285.536C405.98 285.915 410.966 285.661 410.966 285.661C412.337 286.547 412.835 288.826 412.835 288.826C414.208 287.052 417.074 288.697 414.956 289.711C416.948 290.976 416.948 292.114 416.948 292.114C418.571 291.608 418.571 292.874 418.571 293.254C418.571 293.633 419.069 291.356 419.069 291.356C417.2 289.964 421.562 289.457 420.317 291.988L419.567 293.129L420.815 294.14L420.938 297.051C423.683 296.796 422.934 293.38 422.934 293.38L424.181 293.128C424.181 291.988 425.052 292.621 425.052 292.621C424.181 288.318 427.049 287.561 427.049 287.561C428.669 287.181 428.793 283.763 428.793 283.763C427.673 283.257 428.294 281.486 429.542 283.006C430.787 284.522 428.793 279.967 428.793 279.967L427.796 279.082L426.425 278.956L426.299 277.564H424.057L423.682 279.336L422.81 279.589L422.559 279.082L422.186 280.474H419.942L419.819 278.956L421.19 278.576L421.688 277.817L422.061 275.792H423.683L425.802 275.16C425.925 273.009 427.049 273.516 427.049 273.516L427.796 274.147L428.918 275.033L429.044 275.791L428.294 276.17L428.171 277.184L428.546 278.575H429.542C429.916 276.55 432.536 276.55 433.283 277.816L434.032 276.045C432.287 275.16 433.999 273.767 434.497 274.4C434.996 275.033 436.151 272.756 436.151 272.756C436.151 272.756 437.023 273.894 436.151 272.375C435.278 270.856 436.773 270.098 436.773 270.098C436.525 268.58 438.395 268.833 438.395 268.833L438.52 266.81L436.772 266.681C436.401 268.453 434.905 266.935 435.652 266.556C436.402 266.176 437.147 265.416 437.147 265.416V264.151L437.896 263.898L438.02 262.633H439.891L441.511 261.874L441.886 261.241L443.63 261.115L446.123 258.836L445.876 257.825C444.38 257.825 445.876 256.685 445.876 256.685L446.122 254.792H446.123Z" fill="white"/>
<path d="M395.88 279.842L393.635 279.59L393.761 280.475H394.384C395.38 282.247 394.508 286.548 394.508 286.548C394.508 286.548 393.014 286.673 392.763 285.916C392.516 285.157 391.89 287.561 392.388 287.941C392.887 288.319 394.634 287.941 394.758 289.334C394.881 290.724 395.88 288.447 395.88 288.447V279.842Z" fill="white"/>
<path d="M396.375 294.013L396.628 292.874L395.753 292.499L395.876 290.601L396.628 290.471L396.752 289.582L394.877 290.852L393.632 290.095V293.13L395.629 295.783L396.375 294.013ZM396.875 297.304L396.005 297.43L395.876 298.444L396.875 298.569V297.304ZM395.753 303.757L394.695 303.882V304.771L395.753 304.645V303.757ZM397.223 300.752C397.515 300.752 397.75 300.513 397.75 300.217C397.751 300.148 397.738 300.078 397.712 300.013C397.686 299.948 397.647 299.889 397.598 299.839C397.549 299.789 397.491 299.749 397.426 299.722C397.362 299.695 397.293 299.68 397.223 299.68C397.152 299.68 397.083 299.695 397.019 299.722C396.954 299.749 396.896 299.789 396.847 299.839C396.797 299.889 396.759 299.948 396.732 300.013C396.706 300.078 396.693 300.147 396.694 300.217C396.693 300.358 396.749 300.494 396.848 300.594C396.947 300.694 397.082 300.751 397.223 300.752Z" fill="white"/>
<path d="M398.091 303.411C398.383 303.411 398.62 303.171 398.62 302.874C398.62 302.578 398.383 302.337 398.091 302.337C397.799 302.337 397.562 302.578 397.562 302.874C397.562 303.171 397.799 303.411 398.091 303.411Z" fill="white"/>
<path d="M398.12 288.956C398.412 288.956 398.649 288.715 398.649 288.419C398.649 288.123 398.412 287.882 398.12 287.882C397.828 287.882 397.591 288.123 397.591 288.419C397.591 288.715 397.828 288.956 398.12 288.956Z" fill="white"/>
<path d="M441.384 273.01V270.607H440.638L440.514 269.718L439.139 269.593L438.892 270.225H438.269L438.14 271.239H438.893L439.016 271.997L438.517 272.503L438.269 273.135L437.271 273.392L435.026 275.544L434.903 276.552L434.28 277.441L433.534 279.337L430.913 279.462L430.414 281.74L430.783 283.637L433.028 284.525L433.281 283.261L434.027 282.879L434.156 281.615L434.65 280.727L435.402 279.844L435.649 278.83L436.895 278.072L438.393 277.816L439.016 277.059L439.268 275.544L439.357 274.405L439.891 273.642L441.384 273.01ZM444 278.327V276.556L443.749 274.91L441.881 274.025L440.51 275.291L440.26 277.063V278.2L439.013 278.454L438.762 281.87L437.766 282.251L437.891 283.516L436.52 283.895L435.149 284.275L434.899 285.92L433.903 286.552L433.402 288.07L432.779 291.74C432.779 291.74 433.903 293.891 434.525 292.879C435.149 291.867 436.145 291.74 436.145 291.74L436.52 290.854L439.886 290.98C440.136 289.587 441.757 290.095 441.757 290.728C441.757 291.36 443.004 290.853 443.004 290.853L443.876 289.462H445.246L445.371 287.944L445.995 287.564V285.286C447.991 284.654 447.739 282.756 447.739 282.756L448.241 282.124L447.991 281.239C446.992 280.859 447.49 279.971 448.114 280.225C448.739 280.478 447.241 279.086 447.241 279.086C446.494 279.72 445.872 278.327 445.872 278.327H444ZM445.995 293.635C445.871 295.153 444 295.66 444 295.66L442.629 295.28L441.881 294.647L441.756 292.875L442.877 292.75L443.127 293.51L445.995 293.635ZM452.73 285.542C453 286.645 452.978 283.768 453.476 283.897C453.974 284.023 453.602 282.127 453.602 282.127L451.358 283.769C452.48 283.897 452.602 285.037 452.73 285.542ZM459.337 278.957C459.835 280.097 459.713 281.742 461.58 283.007C462.212 283.434 461.206 284.273 460.581 283.892C459.959 283.514 458.216 280.728 458.216 280.728V279.084C458.589 278.072 459.121 278.467 459.337 278.957ZM460.956 317.043L460.21 316.787L459.34 317.424L459.71 317.801L460.081 318.433L460.956 317.043ZM456.218 315.4V316.922V315.4ZM475.246 312.934L474.847 312.296L473.854 312.923L474.248 313.567L475.246 312.934ZM510.33 339.947L511.454 340.452L511.577 342.603C513.074 344.121 517.937 342.857 517.937 342.476C517.937 342.096 517.685 337.796 517.685 337.796L517.061 337.162L516.938 333.997C517.436 332.352 514.568 329.947 514.319 330.457C514.07 330.961 512.449 330.58 512.449 331.088C512.449 331.592 511.453 334.123 511.951 335.01C512.449 335.896 511.576 335.896 511.452 336.781C511.328 337.666 510.08 339.188 510.33 339.947ZM507.585 334.885C507.349 335.843 506.465 336.403 505.967 336.022C505.465 335.642 506.587 336.654 506.838 337.163C507.087 337.667 507.834 337.667 508.085 337.163C508.333 336.653 508.209 335.518 508.46 335.012C508.708 334.505 507.71 334.378 507.585 334.884V334.885ZM501.788 311.672H502.659V314.077H501.788V311.672ZM514.695 287.312C514.151 286.575 517.188 285.287 517.687 286.807C518.185 288.323 517.687 288.072 517.188 287.945C516.688 287.818 515.444 288.324 514.695 287.312ZM517.247 271.108L518.615 271.358L518.75 270.613L517.376 270.362L517.247 271.108ZM513.885 271.668L512.957 272.193L512.146 271.68L511.752 272.317L512.751 272.95L512.939 273.07L513.127 272.962L513.88 272.539L513.974 272.771L514.667 272.491L514.414 271.859L514.256 271.46L513.885 271.668ZM518.558 241.757H516.686C516.686 241.757 517.31 242.01 515.567 240.364C513.818 238.72 512.699 240.745 512.699 240.745L510.704 240.998V243.022L509.705 243.401L509.831 244.667L511.202 244.541C511.202 244.541 511.202 246.059 511.577 245.427C511.952 244.794 515.068 245.552 514.817 247.072C514.716 247.696 517.936 249.348 517.562 251.372C519.182 251.626 518.808 253.272 518.808 253.272L520.927 253.525L521.552 252.26L522.174 252.386V251.627L520.8 251.247L520.553 247.197L519.68 246.565L519.929 245.552L518.933 245.172L519.431 243.528L518.558 241.757ZM524.04 254.665L523.043 254.54L520.796 254.919L519.552 257.323C519.552 257.323 520.175 257.702 520.672 258.588C521.171 259.474 521.421 264.661 519.925 265.548C518.43 266.434 520.051 265.926 520.051 265.926L519.8 268.71C520.175 269.976 520.796 269.344 521.171 268.71C521.548 268.08 521.922 267.952 522.42 267.319C522.919 266.686 523.666 265.548 523.791 264.662C523.915 263.777 524.539 262.385 524.164 262.005C523.791 261.625 524.539 259.855 524.539 259.855C524.539 259.855 525.038 258.841 524.539 257.83C524.041 256.817 524.663 255.677 525.038 255.171L524.04 254.665ZM525.548 259.827L525.675 258.814L526.419 258.91L526.292 259.923L525.548 259.827ZM525.503 263.323L524.835 262.984L525.209 262.226L525.877 262.564L525.503 263.323ZM524.415 253.277L523.915 252.137C523.915 252.137 523.915 251.127 524.164 250.618C524.415 250.113 523.666 249.608 523.293 249.481C522.918 249.353 523.044 248.342 522.918 247.835C522.794 247.33 521.923 246.95 521.923 246.95C521.923 246.95 521.671 245.053 521.671 244.673C521.671 244.294 520.55 243.788 520.924 243.407C521.299 243.028 521.549 242.522 521.923 242.268C522.297 242.015 521.548 240.243 522.17 240.623C522.794 241.003 522.794 241.636 523.044 242.142C523.293 242.648 522.919 244.42 523.543 244.8C524.165 245.178 523.417 246.442 524.415 246.442C525.412 246.442 524.79 248.849 524.79 248.849C524.79 248.849 524.539 250.619 525.161 250.746C525.786 250.873 525.413 253.909 525.413 253.909L524.415 253.277ZM516.315 232.772C516.688 233.278 517.436 233.657 517.436 234.165C517.436 234.671 517.187 235.05 517.937 235.177C518.683 235.303 519.183 235.049 519.431 235.682C519.681 236.315 519.681 237.327 519.557 237.833C519.431 238.34 519.681 239.099 520.304 239.099C520.928 239.099 521.052 239.226 521.052 239.605C521.052 239.984 521.801 238.213 521.801 238.213C521.176 237.707 520.677 236.567 520.677 236.567C520.677 236.567 520.055 234.797 520.055 234.544C520.055 234.29 519.183 234.037 518.81 233.911C518.435 233.783 517.81 232.646 517.81 232.646L516.315 232.773V232.772ZM517.56 231.64C517.185 231.132 516.811 230.753 516.313 230.501C515.816 230.247 515.441 229.994 514.94 229.994C514.442 229.994 513.945 229.487 514.192 228.856C514.443 228.223 513.817 227.97 513.817 227.463C513.817 226.957 514.192 226.957 514.816 227.337C515.441 227.717 515.315 227.843 515.816 228.477C516.313 229.109 516.561 229.742 517.059 229.615C517.56 229.487 517.934 230.753 518.432 230.374C518.93 229.994 518.807 231.259 518.807 231.259L517.56 231.64ZM502.973 245.935C503.66 246.634 499.233 246.439 499.233 245.935C499.233 245.429 499.608 243.659 500.728 244.036C501.851 244.417 501.974 241.76 501.974 241.76C501.974 241.76 500.978 241.885 501.851 241.379C502.723 240.874 501.851 240.114 501.476 239.734C501.102 239.354 500.728 238.722 500.728 238.722H502.475C503.224 238.215 503.471 235.812 503.471 235.812C504.966 236.318 505.715 235.305 505.715 235.305C505.715 235.305 505.967 236.064 506.465 236.698C506.963 237.33 505.216 237.584 505.84 237.964C506.465 238.343 506.713 239.481 506.465 239.86C506.214 240.24 504.841 239.987 504.841 239.481C504.841 238.975 504.343 240.114 504.841 240.747C505.34 241.379 504.218 242.264 503.969 242.264C503.719 242.264 502.101 242.519 503.471 243.277C504.841 244.036 506.34 243.658 506.34 243.658C506.34 243.658 507.461 243.53 507.835 244.164C508.21 244.796 507.711 244.923 507.088 244.923C506.465 244.923 503.471 244.669 503.471 244.669C503.471 244.669 502.599 245.555 502.973 245.935ZM494.993 247.075C495.618 246.948 497.111 246.821 497.362 247.201C497.612 247.58 496.489 248.086 496.489 248.086L494.993 248.339C494.495 247.706 494.37 247.202 494.993 247.075ZM511.08 236.447C512.077 235.942 514.196 235.942 514.072 235.182C513.948 234.423 515.318 234.17 515.318 234.17L515.693 235.688L516.815 236.446L516.94 237.839C516.94 237.839 517.313 237.586 515.942 237.966C514.57 238.345 515.444 238.977 515.444 238.977L512.451 239.104L512.076 237.838L511.08 236.447ZM506.213 229.615C506.97 229.615 505.965 232.525 507.957 232.272C509.952 232.018 508.085 233.157 509.579 233.284C511.076 233.411 510.701 232.145 511.199 231.26C511.7 230.375 511.451 229.868 510.577 229.615C509.702 229.362 509.702 229.362 509.455 228.348C509.207 227.337 508.208 227.083 508.208 227.083L507.833 225.565L506.213 226.577L504.593 228.728C504.593 230.375 505.464 229.615 506.213 229.615ZM509.513 240.307L509.888 239.548L510.558 239.888L510.183 240.647L509.513 240.307ZM508.208 239.102H508.956V239.988H508.208V239.102ZM508.837 222.242L508.962 223.381L508.219 223.465L508.093 222.328L508.837 222.242ZM506.715 234.04H507.464V234.674H506.715V234.04ZM504.752 234.027L504.678 233.27L505.925 233.146L505.999 233.902L504.752 234.027ZM494.466 246.196L493.781 245.896L494.156 245.012L494.84 245.31L494.466 246.196ZM490.553 243.893L490.48 243.139L491.729 243.014L491.801 243.767L490.553 243.893ZM466.18 243.784L466.215 244.541L468.953 244.416L468.918 243.658L466.18 243.784ZM464.344 244.757L464.096 243.62L464.827 243.455L465.075 244.592L464.344 244.757ZM463.82 245.541L463.583 244.821L463.957 244.694L464.193 245.415L463.82 245.541ZM470.055 243.407L469.931 244.292L471.301 244.42C471.301 244.42 471.923 244.927 471.923 245.305C471.923 245.685 472.798 246.064 473.296 246.064C473.795 246.064 475.166 245.051 475.166 245.051C475.166 245.051 475.79 243.28 475.292 243.406C474.791 243.532 473.795 244.292 473.672 243.532C473.544 242.773 472.051 243.152 472.051 243.152L470.055 243.407ZM476.288 242.012C476.288 242.391 476.04 242.897 476.786 243.025C477.537 243.15 478.908 242.519 479.032 243.277C479.158 244.036 479.158 244.544 480.154 244.925C481.15 245.303 481.775 245.43 482.523 245.43C483.269 245.43 484.893 245.175 484.893 245.175C484.893 245.175 486.656 245.451 487.011 245.809C488.382 247.2 489.254 247.58 489.629 246.947C490.002 246.314 489.504 244.924 489.38 244.418C489.254 243.91 487.508 241.506 486.885 242.012C486.263 242.519 486.138 242.012 485.015 242.391C483.893 242.771 481.524 242.519 481.4 242.012C481.277 241.505 479.531 241.255 479.531 240.747C479.531 240.24 478.286 239.609 478.409 240.367C478.532 241.126 477.537 241.505 477.284 241.254C477.036 241 476.288 242.012 476.288 242.012ZM504.968 225.812L505.842 223.03C504.596 222.776 504.844 221.386 504.844 221.386C504.719 220.246 502.975 218.981 502.351 219.361C501.728 219.74 501.976 216.703 501.976 216.703C501.976 216.703 503.099 215.945 503.597 216.324C504.096 216.703 499.36 209.998 498.361 210.63C497.364 211.263 495.122 209.998 495.245 208.858C495.37 207.72 490.757 203.923 490.757 203.923C490.757 203.923 489.26 202.913 489.012 203.672C488.762 204.43 488.264 204.937 489.012 205.315C489.759 205.696 489.635 204.683 490.506 205.567C491.379 206.453 493.001 207.593 492.377 208.352C491.753 209.113 491.005 209.365 491.005 209.365L491.879 210.377H493.25L493.5 212.527C493.5 212.527 494.995 213.287 495.37 214.173C495.744 215.058 495.744 215.565 495.37 216.072C494.995 216.578 494.25 217.463 494.373 218.348C494.497 219.233 495.495 219.613 495.495 219.613L496.491 219.741L497.241 220.121V221.767C498.236 221.512 499.857 222.903 499.733 223.79C499.61 224.675 499.981 224.169 501.228 225.056C502.476 225.941 502.103 226.068 502.975 226.701C503.848 227.331 504.596 226.952 504.968 225.812Z" fill="white"/>
<path d="M484.395 208.607C484.271 208.1 484.02 206.328 484.769 206.455C485.517 206.582 485.019 206.455 485.891 206.835C486.764 207.215 486.889 206.203 486.889 206.203H488.261L490.005 207.593L489.755 208.733L488.509 208.858C487.886 207.847 486.639 208.227 486.889 209.113C487.138 209.998 486.266 211.643 485.768 211.768C485.27 211.896 483.646 211.896 483.773 211.138C483.897 210.378 484.395 208.607 484.395 208.607ZM483.397 205.187V204.175C483.397 204.175 483.27 203.164 482.649 203.164C482.027 203.164 480.905 202.405 481.152 201.898C481.403 201.391 479.033 200.886 479.033 200.886C479.033 200.886 476.915 198.861 477.663 199.116C478.411 199.368 478.038 198.229 478.038 198.229C478.038 198.229 476.54 198.481 476.166 198.356C475.791 198.229 475.915 197.09 475.915 197.09C475.915 197.09 474.421 196.711 474.421 197.09C474.421 197.47 474.92 197.47 475.167 198.228C475.418 198.987 475.294 200.253 476.417 200.506C477.539 200.759 477.787 201.011 477.913 201.518C478.038 202.025 479.408 202.15 479.408 202.15L480.407 202.657L483.397 205.187ZM469.565 191.27L468.566 191.02V192.16L469.934 192.284L469.565 191.27ZM469.56 186.97C468.256 185.98 471.304 187.729 471.304 187.729C472.3 187.729 472.924 188.488 472.924 188.869C472.924 189.248 474.296 189.122 474.296 189.122L474.423 188.235L473.423 186.97L472.552 186.339C472.552 186.339 471.181 186.211 471.181 185.832C471.181 185.453 470.058 187.35 469.56 186.97ZM492.495 187.727C492.13 188.834 491.997 190.385 491.373 190.385C490.751 190.385 490.998 192.031 490.998 192.031C490.998 192.031 492.622 192.031 493.12 192.157C493.617 192.282 493.617 193.547 493.617 193.547C495.489 193.422 496.237 195.952 495.987 196.585C495.736 197.217 496.735 197.217 496.735 197.217C496.735 197.217 496.735 199.242 496.484 199.747C496.237 200.254 498.106 200.634 498.604 201.393C499.103 202.153 498.353 204.682 497.981 204.809C497.606 204.937 498.976 205.315 498.853 205.948C498.727 206.581 499.228 205.948 499.352 206.96C499.475 207.973 499.727 210.123 499.727 210.123L501.47 210.25C501.721 208.606 504.935 208.543 505.46 208.732C507.58 209.491 509.203 212.781 509.203 213.539C509.203 214.298 507.829 214.426 507.829 214.426L508.08 218.094C510.199 218.728 511.944 221.765 511.696 222.271C511.446 222.777 513.19 222.652 513.19 222.652C513.441 220.372 515.56 221.132 515.683 221.892C515.81 222.652 516.182 224.296 516.182 224.296L516.806 225.433L517.678 226.319L519.049 226.193L519.424 226.953L521.044 227.207C521.044 227.207 522.418 228.724 522.541 229.105C522.667 229.483 524.536 229.357 525.034 229.483C525.532 229.61 526.282 229.99 526.405 230.623C526.531 231.256 527.28 232.267 527.28 232.267C527.28 232.267 528.775 232.648 528.9 233.152C529.024 233.658 529.649 234.797 529.649 234.797L530.893 235.81L531.019 236.95L532.39 237.076L532.765 238.593L535.007 238.468L536.256 237.582C537.876 236.697 538.999 235.557 539.124 235.051C539.247 234.544 539.497 232.648 540.744 233.027C541.99 233.407 541.119 230.242 541.119 230.242C541.119 230.242 539.374 228.977 539.497 228.343C539.622 227.712 537.753 226.447 537.877 225.94C538 225.433 536.256 224.422 536.38 223.916C536.503 223.409 535.507 222.017 535.507 222.017L533.636 220.247L533.386 219.107L531.892 218.982L528.9 215.312L529.024 214.299L528.151 214.173V212.782L527.28 212.275L525.907 212.148L523.165 209.113L522.916 207.72H521.545L521.793 205.062C522.667 203.923 522.167 201.772 522.167 201.772C522.167 201.772 520.42 202.657 519.55 202.278C518.675 201.9 519.922 201.013 519.922 201.013V200.001L519.176 199.242C519.176 199.242 517.054 199.496 516.931 199.117C516.806 198.736 516.433 197.092 516.433 197.092L516.307 194.939L515.436 194.562L515.309 193.801L513.94 193.927V192.409L513.19 192.157L512.443 191.777L512.319 190.258L509.575 190.132L508.703 188.867L507.706 187.348L504.59 187.096L503.841 186.338L502.594 186.083L501.722 185.704L501.348 186.337L498.978 186.463L498.855 187.222C497.608 187.855 492.622 187.348 492.495 187.727ZM505.59 184.442C505.393 183.443 508.085 182.545 508.708 183.302C509.332 184.062 511.077 184.19 511.327 187.986C511.414 189.345 509.082 186.595 509.082 186.595L507.211 185.962C506.214 185.707 505.714 185.077 505.591 184.442H505.59ZM469.022 185.988L468.341 185.68L468.842 184.54L469.523 184.849L469.022 185.988ZM462.577 173.56L460.954 171.914V170.523L460.455 170.015L459.957 168.245L458.337 167.739L456.716 168.37L454.97 169.51L453.101 169.765L452.102 170.902L456.092 171.28L456.839 172.547L459.71 172.8L461.577 174.697C463.202 175.204 463.574 174.445 462.577 173.56ZM462.33 167.357C462.056 166.245 460.459 168.748 462.083 169.253C463.703 169.762 465.321 169.253 465.321 169.253L465.696 168.495L471.929 168.622C472.43 168.115 472.677 167.356 472.677 167.356C472.677 167.356 474.174 166.849 474.796 167.102C475.42 167.357 474.923 165.332 474.297 165.585C473.675 165.838 472.429 165.711 472.429 165.711H470.183C470.06 164.826 468.064 165.205 467.941 165.711C467.813 166.217 467.069 166.343 467.069 166.343L464.2 166.597C463.951 167.357 462.456 167.863 462.33 167.357ZM449.985 188.71C451.902 189.318 452.603 188.867 452.729 188.362C452.853 187.855 452.977 187.728 453.725 187.603C454.473 187.475 453.6 185.958 452.853 186.084C452.104 186.211 451.356 185.831 451.233 185.199C451.106 184.567 449.859 182.921 449.735 184.186C449.611 185.452 448.863 185.452 448.987 186.338C449.113 187.222 449.487 188.55 449.985 188.71ZM435.653 190.135C435.563 189.687 438.146 189.629 438.521 190.007C438.896 190.387 438.644 191.02 439.767 191.02C440.888 191.02 440.39 191.779 440.265 192.16C440.141 192.538 438.896 192.412 438.768 192.034C438.644 191.653 436.773 191.525 436.773 191.525C436.773 191.525 435.776 190.765 435.653 190.135ZM477.015 164.83L477.273 164.617L478.525 163.604L478.055 163.012L477.067 163.81L476.433 163.165L475.904 163.702L476.774 164.587L477.015 164.83ZM471.38 161.477L472.755 160.591L472.355 159.951L471.18 160.708L470.38 160.203L469.987 160.846L470.986 161.478L471.18 161.605L471.38 161.477ZM467.502 188.689L468.13 188.283L467.261 186.893L467.161 186.739L466.979 186.721L465.734 186.589L465.657 187.347L466.726 187.454L467.502 188.689ZM425.925 222.017L426.053 223.41H427.92C428.669 223.41 427.298 222.524 427.298 222.524C427.298 222.524 425.802 222.652 425.925 222.017ZM428.303 222.058L428.78 221.473L429.528 222.103L429.05 222.688L428.303 222.058ZM405.587 198.385L406.117 197.848L406.865 198.608L406.334 199.145L405.587 198.385ZM441.278 362.483L441.901 361.852L442.265 361.482L441.801 361.243L440.556 360.611L440.221 361.291L441.002 361.684L440.744 361.947L441.278 362.483ZM431.818 353.413L432.253 352.798L431.771 352.447L432.147 352.131L431.671 351.547L430.919 352.179L430.549 352.495L430.943 352.781L431.818 353.413ZM524.857 328.127C524.692 327.482 523.965 327.218 523.883 327.191L523.645 327.913V327.908C523.705 327.931 523.791 327.976 523.878 328.033L524.03 328.689C523.979 328.765 523.924 328.838 523.865 328.908L524.414 329.422C524.814 328.976 524.962 328.544 524.857 328.127ZM524.791 325.648L524.884 324.509L526.101 324.7L526.007 325.738L524.791 325.648ZM554.902 315.872C555.435 315.535 556.117 314.922 556.024 316.348C555.93 317.77 555.37 317.297 554.902 317.77C554.435 318.246 554.155 316.348 554.902 315.872ZM561.247 310.502C561.237 310.477 561.23 310.39 561.225 310.326C561.208 310.117 561.181 309.832 561.034 309.534L560.365 309.873C560.448 310.042 560.464 310.222 560.479 310.393C560.497 310.615 560.522 310.868 560.734 311.029C560.869 311.131 561.037 311.16 561.239 311.121L561.097 310.386C561.154 310.396 561.229 310.448 561.247 310.502ZM559.582 311.125C559.717 311.652 559.877 312.172 560.062 312.683L560.764 312.416C560.758 312.409 560.486 311.668 560.307 310.939L559.582 311.125ZM556.86 314.11L556.115 314.035C556.057 314.632 556.199 315.37 556.788 315.49L556.935 314.746C556.94 314.746 556.947 314.75 556.948 314.75C556.888 314.696 556.833 314.39 556.86 314.11ZM553.582 299.012C553.566 298.896 553.52 298.786 553.448 298.692C553.376 298.599 553.282 298.526 553.174 298.48C552.62 298.237 551.687 298.639 551.23 298.95L551.644 299.581C552.117 299.261 552.739 299.107 552.877 299.177C552.865 299.173 552.847 299.15 552.843 299.136L553.582 299.012ZM519.053 258.587C518.555 259.094 517.432 259.347 517.432 259.347L517.057 260.739L516.435 261.244C516.435 261.244 516.559 261.624 516.435 262.51C516.31 263.395 515.188 263.902 515.188 263.902L514.69 264.535C514.69 264.535 511.684 264.697 511.324 264.535C510.201 264.028 510.95 262.51 511.699 262.636C512.445 262.764 511.572 260.485 511.572 260.485L512.571 260.359C512.571 260.359 512.694 258.08 513.069 258.08C513.444 258.08 512.945 257.322 512.444 256.942C511.946 256.564 511.324 255.298 510.823 255.424C510.325 255.55 508.33 255.424 508.33 255.424L507.955 256.184L506.583 256.436C506.583 256.436 506.701 257.415 506.462 257.702C505.711 258.587 502.846 260.485 504.091 257.323L504.463 256.564V255.424L502.222 255.299C502.222 255.299 501.1 254.919 501.1 254.413C501.1 253.906 500.975 253.275 500.975 253.275L498.356 250.365L495.24 249.985L494.989 249.352L493.122 249.099C490.876 247.961 488.88 248.972 489.255 250.87C489.629 252.77 490.251 253.528 489.007 253.528C487.758 253.528 487.51 252.516 487.51 252.516C487.51 252.516 486.514 252.136 486.514 252.642C486.514 253.149 486.139 254.161 486.514 254.667C486.886 255.172 486.013 255.931 485.639 255.552C485.267 255.172 484.269 254.035 484.519 253.655C484.767 253.276 482.771 250.87 484.767 250.492C486.763 250.111 484.642 248.972 485.392 248.721L486.388 248.214H487.385L488.008 247.707L486.389 247.456L485.392 247.328L483.52 247.202C481.651 248.467 481.278 249.986 481.278 249.986C480.279 251.884 477.912 249.226 478.785 248.215C479.657 247.202 476.041 248.087 475.417 248.593C474.793 249.1 472.923 248.847 472.923 248.847C472.55 249.987 470.805 248.722 471.303 247.962C471.802 247.202 471.802 246.696 471.802 246.696L471.179 246.569L470.432 247.961C468.686 247.961 468.186 248.972 468.56 249.606C468.934 250.237 468.062 249.479 467.811 250.365C467.564 251.25 467.938 251.25 468.686 251.63C469.435 252.01 468.311 252.01 468.81 252.642C469.308 253.276 470.805 252.642 469.933 253.528C469.061 254.413 467.313 254.035 467.313 254.035C467.189 255.172 464.82 254.92 464.573 254.541C464.321 254.161 462.453 251.883 462.453 251.883L460.081 251.757C459.833 249.987 461.204 250.872 461.703 249.479C462.204 248.087 462.453 245.811 462.453 245.811C462.453 245.811 460.456 245.684 460.332 246.316C460.208 246.949 458.961 247.329 458.961 247.329C458.961 247.329 457.963 247.708 458.337 248.214C458.712 248.722 457.589 248.972 457.589 248.972C457.589 248.972 457.784 249.79 457.465 250.112C456.469 251.125 453.973 250.237 453.601 249.859L452.104 249.226L450.607 248.214L448.862 248.971L448.364 249.479H446.493L446.369 250.996L449.735 251.374L449.985 254.506L448.613 254.034H447.74L447.367 253.274L446.618 253.147V255.93L447.367 256.564L447.991 257.194L449.238 257.322L449.488 258.839L452.603 258.967L452.978 259.599L454.849 259.726L458.464 263.394L458.214 264.534L457.589 264.913C457.84 265.799 455.971 265.294 455.971 265.294V266.051L456.841 266.179L457.716 266.683L458.961 264.533C460.333 263.648 460.955 264.913 461.081 265.672C461.205 266.431 460.456 266.305 460.456 266.305V268.078L461.205 268.329C462.454 269.848 460.707 270.734 460.707 270.734L460.332 271.999C459.957 273.138 458.587 272.884 458.587 272.884L458.09 273.643L456.591 274.024L459.551 274.402C459.833 273.39 460.579 273.137 460.954 273.643C461.329 274.15 461.329 275.036 461.329 275.036L462.079 275.162L461.952 276.553L462.701 276.808V280.856L463.574 281.869C465.07 281.237 465.07 282.249 464.321 282.754C463.574 283.258 464.071 285.538 464.071 285.538L463.448 286.169V287.182L462.701 287.689V289.08C461.453 288.448 459.956 288.699 459.581 289.08C458.462 288.32 456.092 288.574 456.092 289.207C456.839 290.22 455.221 290.473 455.221 290.473L454.346 291.485C454.971 292.75 453.725 292.876 453.725 292.876V295.281L452.228 296.673L452.354 299.962C452.354 300.848 454.223 300.974 454.596 300.469C454.97 299.962 456.467 301.481 456.467 301.481H457.587L457.838 299.203L457.089 298.823V295.153L458.336 293.761C459.833 293.255 459.335 297.053 459.335 297.432C459.459 298.823 460.08 298.697 460.706 298.443C461.952 297.938 460.953 299.837 459.957 299.709C458.96 299.584 459.582 300.974 459.582 300.974L460.208 301.228L459.084 302.113L458.089 303.253L456.839 302.872L455.345 302.748L454.847 301.86L453.972 301.734L453.848 303.504L453.225 304.264L451.729 305.784C453.725 305.784 451.478 307.173 450.98 307.173C452.102 307.553 450.857 308.693 447.989 307.808V308.692L446.99 308.82L447.866 309.83L448.861 309.958L448.487 312.108C448.487 313.753 444.374 312.613 443.999 312.235L443.874 314.512L443.126 314.637L443.25 316.157L443.126 318.309L444.497 318.055V318.942L447.864 319.069L452.727 313.879L455.594 313.248C455.842 311.98 457.087 313.501 457.087 313.501C458.335 313.372 458.585 314.259 458.585 314.259L460.207 314.512C461.576 314.893 460.748 315.026 460.829 315.526C460.952 316.284 461.576 316.031 461.576 316.031L461.827 314.386L462.576 314.512L461.827 313.627L460.454 312.993L458.96 312.361C457.961 310.97 459.209 311.223 460.207 311.35H461.827C461.827 311.35 463.699 313.879 463.699 314.512C463.699 315.147 464.571 315.273 464.571 315.273L465.691 315.145L466.066 316.03H467.188L467.563 316.788H469.807L469.931 315.65L467.81 315.273L467.687 314.005L466.192 313.626C465.691 311.476 466.564 310.843 467.188 311.857L467.936 311.98L467.686 310.083L468.558 309.829L468.309 307.171L467.562 306.92V306.034L470.677 306.163C470.429 304.515 470.803 303.757 470.803 303.757H471.675L471.8 304.391L475.614 304.751L478.311 301.657C478.175 301.421 478.582 301.276 478.286 300.973C477.911 300.594 477.411 300.973 476.786 300.594C476.163 300.217 476.785 298.063 476.662 297.558C476.537 297.053 478.783 296.29 478.409 297.431C478.034 298.571 478.409 299.077 478.409 299.077C480.029 297.558 481.401 299.202 481.277 299.582C481.15 299.962 482.148 300.342 482.77 299.962C483.395 299.582 484.143 301.102 483.893 301.859C483.643 302.617 481.401 302.492 481.277 301.732C481.15 300.973 480.775 301.227 480.529 301.607C480.277 301.987 479.158 302.239 478.534 301.858C478.406 301.782 478.346 301.718 478.311 301.657L475.614 304.75L475.789 304.768C477.284 305.656 476.537 306.793 476.04 307.047C475.539 307.3 474.667 307.3 474.667 307.3L474.419 307.807L471.177 308.059L470.927 309.325C469.306 309.07 468.684 310.843 469.058 311.727C469.433 312.612 469.058 313.372 469.058 313.372L470.429 314.005L472.173 313.501C472.424 312.234 473.544 311.98 474.543 311.223C475.539 310.463 477.161 312.612 476.661 313.626C476.163 314.637 476.163 315.017 476.163 315.017L476.286 316.157L475.041 316.662L474.044 317.169L473.917 317.802H470.552L469.93 318.433L468.308 318.563L467.807 319.321L466.688 319.448C466.688 319.448 464.816 320.334 465.566 321.346C466.313 322.359 462.449 322.232 461.574 320.839C461.324 322.103 459.954 320.965 459.954 320.965L458.583 320.585L458.459 318.689C458.21 317.422 455.84 317.422 455.966 318.31C456.09 319.195 451.476 318.689 451.476 318.689L449.981 319.416L448.608 320.208L448.484 320.839L446.239 321.092L445.243 321.599L444.869 320.839H443.872L442.874 322.233C440.257 322.36 437.763 323.878 438.012 324.511C438.262 325.142 437.016 325.778 437.016 325.778L435.893 326.153L435.146 327.293L433.65 327.8L433.399 330.458L432.653 330.963V332.103L431.778 332.354V332.988L430.532 333.115L431.279 335.013L432.279 335.52C434.024 335.771 433.275 337.924 433.275 337.924L434.271 338.049L434.772 339.44L435.768 341.465C436.143 342.986 437.265 342.605 437.763 342.478C438.262 342.354 438.759 343.996 438.759 343.996L443.746 344.124C443.746 344.124 443.498 344.63 444.371 344.883C445.242 345.134 450.978 345.39 451.229 345.01C450.977 343.87 454.343 343.617 455.717 344.629C457.086 345.64 458.956 345.01 458.956 345.01L460.827 347.285L462.076 350.07L464.194 350.701L465.689 351.082L466.19 353.233L467.31 353.36L467.685 354.753C469.057 355.765 467.31 357.917 467.31 357.917V360.699L468.308 361.206L468.182 362.219L469.805 363.862L471.674 363.991L476.413 369.051L480.151 370.189L480.774 372.214L481.774 372.087L482.521 371.456L485.512 371.329L487.01 369.935L488.63 369.684L502.469 357.917L501.221 357.156V354.374C503.465 352.729 503.589 349.817 501.47 349.564C499.862 349.372 500.599 347.666 502.095 347.413L502.967 347.035V345.895L505.834 343.24V341.215L499.602 336.025C496.858 335.014 499.602 328.939 501.469 329.066C503.341 329.191 501.346 319.703 501.346 319.703L500.348 319.198L500.599 316.16H499.228L496.983 319.072L496.36 321.094C496.111 323.755 488.38 323.245 488.005 322.866C487.63 322.486 485.014 321.348 485.014 321.348C485.014 321.348 483.019 319.703 482.645 320.21C482.27 320.717 480.526 319.576 480.526 319.957C480.526 320.337 478.907 319.072 478.907 319.072L476.413 318.186L478.285 317.805L477.91 316.288L481.148 317.932C481.523 318.436 483.143 318.313 483.143 318.313L483.642 318.946C483.642 318.946 484.641 318.817 485.266 319.578C485.889 320.338 489.129 319.705 489.129 319.705L490.001 320.462L491.372 320.969L495.239 321.097L495.362 318.694L496.111 317.934L495.986 316.414L496.858 315.656V314.392L497.607 314.138L497.731 311.356L498.353 311.229V305.155L496.483 303.382C496.36 304.016 494.366 304.016 494.366 304.016C494.366 304.016 493.867 304.901 493.493 304.901C493.12 304.901 493.992 306.038 493.741 306.799C493.492 307.556 492.494 307.556 492.494 307.556L490.623 308.064L490.125 308.698H488.13L487.883 307.053L490.125 306.419L491.371 305.788L491.995 304.52C492.119 303.257 493.616 303.382 493.616 303.382C493.616 303.382 496.483 300.978 496.608 299.841C496.735 298.702 497.731 295.538 499.475 295.538H502.717C503.963 295.03 503.59 293.386 503.59 293.386L505.211 293.135L505.461 294.02C505.461 294.02 507.706 294.273 507.954 293.893C508.204 293.515 508.702 292.628 509.326 293.008C509.95 293.387 511.944 292.122 511.944 292.122C512.068 291.236 515.186 291.616 515.186 291.616L515.561 290.478C515.561 290.478 513.442 287.568 513.067 287.568C512.692 287.568 510.698 285.794 510.448 286.428C508.456 285.922 508.579 283.138 508.579 283.138L507.83 281.368C507.83 280.354 505.963 278.203 505.585 278.458C503.714 277.066 505.087 275.42 505.585 275.293C506.084 275.168 507.333 273.396 507.333 273.396L507.955 271.624L510.074 270.994L510.324 269.347L509.204 269.221C509.204 269.221 510.449 266.943 511.073 266.943C511.698 266.943 515.812 266.943 516.183 266.689C516.558 266.437 517.305 264.412 517.305 264.033C517.305 263.653 518.305 263.526 518.677 263.398C519.051 263.273 519.923 262.261 520.173 261.754C520.423 261.244 519.552 258.081 519.052 258.587H519.053Z" fill="white"/>
<path d="M449.985 304.202C450.173 304.015 450.36 304.772 450.734 304.678C451.105 304.582 451.294 305.342 450.921 305.342C450.546 305.342 450.546 305.818 450.546 306.007C450.546 306.197 450.546 306.67 450.265 306.955C449.984 307.24 449.702 307.05 449.328 306.861C448.955 306.671 448.77 306.671 448.301 306.671C447.834 306.671 448.206 307.431 448.206 307.431C448.206 307.431 446.243 307.336 446.617 307.05C446.992 306.768 447.365 306.67 447.086 306.48C446.804 306.29 447.086 306.102 447.086 305.722C447.086 305.341 448.022 305.533 447.739 305.247C447.461 304.962 447.745 303.861 448.206 304.487L448.488 303.822C448.206 303.538 448.395 303.442 447.834 303.255C447.273 303.065 447.739 301.925 447.739 301.925L447.834 301.166C448.021 300.219 449.89 300.123 449.984 300.976C450.077 301.831 449.984 302.401 449.984 302.401L450.547 302.589C450.547 302.589 450.452 303.161 449.984 303.161C449.515 303.161 449.984 303.442 449.703 303.729L449.985 304.201V304.202ZM443.813 305.155C444.094 304.585 444.747 302.117 445.496 302.877C446.242 303.637 446.711 302.877 446.711 302.877C446.711 302.877 447.086 303.258 446.898 304.017C446.711 304.774 446.523 305.535 446.054 305.629C445.589 305.725 445.214 306.01 444.655 306.105C444.095 306.2 443.813 305.155 443.813 305.155Z" fill="white"/>
</svg>
